<!-- Generated by IcoMoon.io -->
<svg version="1.1" xmlns="http://www.w3.org/2000/svg" width="68" height="32" viewBox="0 0 68 32">
<title>cloudy</title>
<path d="M51.402 3.921l-2.162-1.297c-13.088-7.841-23.957 4.007-27.013 7.928-7.323-4.584-16.692-2.566-20.584 2.652-1.079 1.282-1.735 2.952-1.735 4.775 0 0.411 0.033 0.814 0.097 1.207l-0.006-0.043c0.646 2.539 2.173 4.648 4.23 6.031l0.037 0.023c6.025 4.526 20.699 6.804 34.306 6.804 0.569 0.015 1.238 0.024 1.91 0.024 6.946 0 13.677-0.924 20.076-2.656l-0.537 0.124c4.007-1.24 6.314-2.883 7.005-4.987 3.229-9.312-2.681-12.973-15.625-20.584zM64.432 23.582c-0.202 0.519-1.038 1.874-5.16 3.171-13.146 4.094-44.425 2.681-53.16-3.863-1.556-0.976-2.707-2.474-3.216-4.243l-0.013-0.052c-0.039-0.226-0.062-0.486-0.062-0.751 0-1.108 0.393-2.125 1.048-2.918l-0.006 0.008c2.222-2.486 5.438-4.043 9.018-4.043 0.144 0 0.287 0.002 0.43 0.008l-0.021-0.001c3.146 0.022 6.035 1.104 8.332 2.905l-0.030-0.022 1.211 0.923 0.865-1.268c0.519-0.778 10.926-16.173 24.072-8.332l2.162 1.297c13.521 8.014 16.778 10.35 14.53 17.182z"></path>
</svg>
