<!-- Generated by IcoMoon.io -->
<svg version="1.1" xmlns="http://www.w3.org/2000/svg" width="52" height="32" viewBox="0 0 52 32">
<title>fog</title>
<path d="M3.299 17.617c3.294 1.857 7.159 3.136 11.272 3.589l0.135 0.012h-12.938v2.156h47.439v-2.156h-6.922c1.295-0.244 2.383-0.52 3.444-0.855l-0.21 0.057c2.674-0.863 4.205-1.941 4.701-3.342 2.35-6.469-2.156-8.992-11.817-14.383l-1.617-0.884c-9.768-5.412-17.876 2.803-20.162 5.499-1.91-1.111-4.203-1.768-6.649-1.768-2.014 0-3.925 0.445-5.638 1.241l0.083-0.034c-2.29 0.857-3.978 2.831-4.414 5.241l-0.006 0.042c-0.001 0.041-0.002 0.089-0.002 0.137 0 2.354 1.324 4.399 3.267 5.431l0.033 0.016zM5.348 8.625c1.349-0.627 2.928-0.992 4.593-0.992 0.030 0 0.061 0 0.091 0l-0.005-0c0.021-0 0.045-0 0.070-0 2.297 0 4.426 0.718 6.175 1.942l-0.035-0.023 0.884 0.604 0.604-0.863c0.345-0.388 8.151-11.062 18.027-5.606l1.617 0.906c9.941 5.499 12.485 7.137 10.782 11.752v0c-0.108 0.302-0.668 1.143-3.321 1.984-9.509 3.084-33.596 2.156-40.302-2.501-1.143-0.733-2.501-2.070-2.372-3.601 0.376-1.689 1.581-3.030 3.157-3.59l0.034-0.011z"></path>
<path d="M5.003 25.531h47.439v2.156h-47.439v-2.156z"></path>
<path d="M0.69 29.844h47.439v2.156h-47.439v-2.156z"></path>
</svg>
