<!-- Generated by IcoMoon.io -->
<svg version="1.1" xmlns="http://www.w3.org/2000/svg" width="42" height="32" viewBox="0 0 42 32">
<title>partlysunny</title>
<defs>
	<style>
		path{
			animation:offset 5s linear forwards;
			stroke:black;
			<!-- fill-opacity:0; -->
			stroke-dasharray: 900; 
			<!-- stroke-dashoffset: 900;
 -->
		}

		@keyframes offset{
			<!-- to{stroke-dashoffset:0} -->
			0%{
			stroke-offset:900;
			fill-opacity:0;

			}
			80%{
			stroke-offset:0;
			fill-opacity:0;
			}
			100%{
			fill-opacity:100;
			}
		}
	</style>
</defs>
<path d="M32.875 20.862c-0.619-3.499-2.526-6.469-5.203-8.459l-0.036-0.025c-1.962-1.493-4.446-2.392-7.14-2.392-0.617 0-1.223 0.047-1.815 0.138l0.066-0.008c-5.44 1.146-9.537 5.701-9.977 11.283l-0.003 0.044c-0.957 0.389-1.756 0.998-2.361 1.766l-0.009 0.012c-0.477 0.591-0.765 1.352-0.765 2.18 0 0.21 0.019 0.416 0.054 0.616l-0.003-0.021c0.302 1.186 1.015 2.172 1.976 2.817l0.017 0.011c2.815 2.114 9.67 3.178 16.027 3.178 0.246 0.006 0.535 0.009 0.826 0.009 3.249 0 6.398-0.426 9.395-1.225l-0.254 0.058c1.872-0.593 2.95-1.347 3.273-2.343 1.212-3.475-0.323-5.226-4.067-7.636zM18.963 11.434c0.455-0.070 0.981-0.11 1.515-0.11 2.403 0 4.618 0.806 6.389 2.162l-0.025-0.019c2.111 1.564 3.673 3.764 4.41 6.313l0.021 0.085-1.643-1.010-1.010-0.606c-6.088-3.636-11.111 1.953-12.606 3.731-1.179-0.738-2.611-1.176-4.145-1.176-0.593 0-1.17 0.065-1.726 0.189l0.053-0.010c0.646-4.737 4.149-8.504 8.692-9.534l0.076-0.014zM35.731 28.067c-0.094 0.242-0.485 0.875-2.411 1.481-6.114 1.912-20.754 1.266-24.835-1.805-0.713-0.459-1.238-1.159-1.462-1.983l-0.006-0.024c-0.018-0.105-0.029-0.227-0.029-0.351 0-0.518 0.184-0.993 0.49-1.363l-0.003 0.004c1.038-1.161 2.541-1.889 4.213-1.889 0.067 0 0.134 0.001 0.201 0.003l-0.010-0c1.47 0.008 2.82 0.514 3.892 1.357l-0.014-0.010 0.566 0.431 0.404-0.593c0.202-0.31 5.104-7.502 11.205-3.838l1.010 0.606c6.249 3.677 7.838 4.795 6.788 7.973z"></path>
<path d="M0 16.835h6.734v1.347h-6.734v-1.347z"></path>
<path d="M19.529 0h1.347v8.081h-1.347v-8.081z"></path>
<path d="M35.69 16.835h6.734v1.347h-6.734v-1.347z"></path>
</svg>
