<!-- Generated by IcoMoon.io -->
<svg version="1.1" xmlns="http://www.w3.org/2000/svg" width="44" height="32" viewBox="0 0 44 32">
<title>rain</title>
<path d="M32.904 2.51l-1.384-0.83c-8.36-5.020-15.336 2.565-17.292 5.075-4.687-2.934-10.685-1.642-13.176 1.698-0.691 0.821-1.111 1.89-1.111 3.056 0 0.263 0.021 0.521 0.062 0.773l-0.004-0.027c0.413 1.625 1.391 2.976 2.708 3.861l0.023 0.015c3.857 2.897 13.25 4.355 21.961 4.355 0.364 0.010 0.793 0.015 1.223 0.015 4.447 0 8.755-0.591 12.851-1.7l-0.344 0.079c2.565-0.794 4.042-1.845 4.484-3.193 2.067-5.961-1.716-8.305-10.002-13.176zM41.227 15.096c-0.111 0.332-0.646 1.2-3.285 2.030-8.415 2.621-28.438 1.716-34.030-2.473-0.996-0.625-1.733-1.583-2.059-2.716l-0.008-0.033c-0.025-0.145-0.040-0.311-0.040-0.481 0-0.71 0.252-1.36 0.671-1.868l-0.004 0.005c1.422-1.591 3.481-2.588 5.773-2.588 0.092 0 0.184 0.002 0.275 0.005l-0.013-0c2.014 0.014 3.863 0.707 5.334 1.86l-0.019-0.014 0.775 0.591 0.554-0.812c0.332-0.498 6.994-10.353 15.409-5.333l1.384 0.83c8.655 5.13 10.74 6.625 9.283 10.999z"></path>
<path d="M20.89 20.927h1.845v5.536h-1.845v-5.536z"></path>
<path d="M26.427 26.464h1.845v5.536h-1.845v-5.536z"></path>
<path d="M33.809 22.773h1.845v5.536h-1.845v-5.536z"></path>
<path d="M11.663 24.618h1.845v5.536h-1.845v-5.536z"></path>
</svg>
