<!-- Generated by IcoMoon.io -->
<svg version="1.1" xmlns="http://www.w3.org/2000/svg" width="32" height="32" viewBox="0 0 32 32">
<title>sunny</title>
<path d="M16 8c-4.418 0-8 3.582-8 8s3.582 8 8 8c4.418 0 8-3.582 8-8v0c0-4.418-3.582-8-8-8v0zM16 22.933c-3.829 0-6.933-3.104-6.933-6.933s3.104-6.933 6.933-6.933c3.829 0 6.933 3.104 6.933 6.933v0c-0.006 3.827-3.107 6.927-6.933 6.933h-0.001z"></path>
<path d="M25.6 15.467h6.4v1.067h-6.4v-1.067z"></path>
<path d="M0 15.467h6.4v1.067h-6.4v-1.067z"></path>
<path d="M15.467 0h1.067v6.4h-1.067v-6.4z"></path>
<path d="M15.467 25.6h1.067v6.4h-1.067v-6.4z"></path>
</svg>
